# xmcd
#
# Track frame offsets:
#	150
#	21392
#	43650
#	66262
#	87492
#
# Disc length: 1459 seconds
#
# Revision: 1
# Processed by: cddbd v1.5.1PL0 Copyright (c) Steve Scherf et al.
# Submitted via: CDex 1.50Beta5
#
DISCID=4105b105
DTITLE=ダンス☆マン - 恋と愛の天国
DYEAR=2000
DGENRE=Rock
TTITLE0=恋と愛の天国
TTITLE1=「ゴメン」言いづらい
TTITLE2=いつもゴールデンかラブラドール(ORIENTA-RHYTHM STEP and GO MIX)
TTITLE3=恋と愛の天国(karaoke)
TTITLE4=「ゴメン」言いづらい(karaoke)
EXTD=
EXTT0=
EXTT1=
EXTT2=
EXTT3=
EXTT4=
PLAYORDER=
